<svg width="24" height="24" viewBox="0 0 24 24" fill="none" xmlns="http://www.w3.org/2000/svg">
<path d="M12.2341 2.65617C15.3533 2.65617 15.7228 2.66809 16.9547 2.7243C18.0937 2.77623 18.7123 2.96655 19.1239 3.12653C19.6692 3.33846 20.0584 3.59161 20.4672 4.00038C20.876 4.4092 21.1291 4.79836 21.3411 5.34366C21.501 5.75531 21.6914 6.37388 21.7433 7.51288C21.7995 8.74473 21.8114 9.11423 21.8114 12.2335C21.8114 15.3528 21.7995 15.7223 21.7433 16.9541C21.6914 18.0931 21.501 18.7117 21.3411 19.1234C21.1291 19.6687 20.876 20.0578 20.4672 20.4666C20.0584 20.8754 19.6692 21.1286 19.1239 21.3405C18.7123 21.5005 18.0937 21.6908 16.9547 21.7427C15.723 21.7989 15.3536 21.8109 12.2341 21.8109C9.11451 21.8109 8.74511 21.7989 7.5134 21.7427C6.37439 21.6908 5.75582 21.5005 5.34416 21.3405C4.79887 21.1286 4.4097 20.8754 4.00093 20.4666C3.59215 20.0578 3.33895 19.6687 3.12703 19.1234C2.96704 18.7117 2.77673 18.0931 2.72479 16.9541C2.66859 15.7223 2.65667 15.3528 2.65667 12.2335C2.65667 9.11423 2.66859 8.74473 2.72479 7.51288C2.77673 6.37388 2.96704 5.75531 3.12703 5.34366C3.33895 4.79836 3.5921 4.4092 4.00093 4.00043C4.4097 3.59161 4.79887 3.33846 5.34416 3.12653C5.75582 2.96655 6.37439 2.77623 7.5134 2.7243C8.74525 2.66809 9.11475 2.65617 12.2341 2.65617ZM12.2341 0.55127C9.06132 0.55127 8.66349 0.564718 7.41745 0.621571C6.17401 0.678284 5.32478 0.875786 4.5817 1.16455C3.81349 1.4631 3.162 1.86255 2.5125 2.512C1.86304 3.1615 1.46359 3.81299 1.16509 4.5812C0.876275 5.32428 0.678773 6.1735 0.622059 7.41694C0.565206 8.66297 0.551758 9.06081 0.551758 12.2335C0.551758 15.4062 0.565206 15.8041 0.622059 17.0501C0.678773 18.2935 0.876275 19.1427 1.16509 19.8858C1.46359 20.654 1.86304 21.3055 2.5125 21.955C3.162 22.6045 3.81349 23.0039 4.5817 23.3024C5.32478 23.5912 6.17401 23.7887 7.41745 23.8455C8.66349 23.9023 9.06132 23.9158 12.2341 23.9158C15.4068 23.9158 15.8046 23.9023 17.0506 23.8455C18.2941 23.7887 19.1433 23.5912 19.8864 23.3024C20.6546 23.0039 21.3061 22.6045 21.9556 21.955C22.605 21.3055 23.0045 20.654 23.303 19.8858C23.5918 19.1427 23.7893 18.2935 23.846 17.0501C23.9029 15.8041 23.9163 15.4062 23.9163 12.2335C23.9163 9.06081 23.9029 8.66297 23.846 7.41694C23.7893 6.1735 23.5918 5.32428 23.303 4.5812C23.0045 3.81299 22.605 3.1615 21.9556 2.512C21.3061 1.86255 20.6546 1.4631 19.8864 1.16455C19.1433 0.875786 18.2941 0.678284 17.0506 0.621571C15.8046 0.564718 15.4068 0.55127 12.2341 0.55127Z" fill="white"/>
<path d="M12.2393 6.23926C8.92606 6.23926 6.24023 8.92507 6.24023 12.2382C6.24023 15.5514 8.92606 18.2372 12.2393 18.2372C15.5524 18.2372 18.2382 15.5514 18.2382 12.2382C18.2382 8.92507 15.5524 6.23926 12.2393 6.23926ZM12.2393 16.1323C10.0886 16.1323 8.34515 14.3889 8.34515 12.2382C8.34515 10.0876 10.0886 8.34416 12.2393 8.34416C14.3899 8.34416 16.1333 10.0876 16.1333 12.2382C16.1333 14.3889 14.3899 16.1323 12.2393 16.1323Z" fill="white"/>
<path d="M19.877 5.99858C19.877 6.77277 19.2493 7.40043 18.4751 7.40043C17.7009 7.40043 17.0732 6.77277 17.0732 5.99858C17.0732 5.22434 17.7009 4.59668 18.4751 4.59668C19.2493 4.59668 19.877 5.22434 19.877 5.99858Z" fill="white"/>
</svg>
