<svg width="24" height="22" viewBox="0 0 24 22" fill="none" xmlns="http://www.w3.org/2000/svg">
<path d="M21.4372 0.440639C21.1562 0.461768 20.8805 0.529899 20.6207 0.642375H20.6172C20.3678 0.7446 19.182 1.26025 17.3794 2.04186L10.9194 4.8544C6.28407 6.87176 1.72747 8.85836 1.72747 8.85836L1.78172 8.83665C1.78172 8.83665 1.46756 8.9434 1.13941 9.17589C0.936671 9.30925 0.762218 9.48375 0.626601 9.68882C0.465585 9.93308 0.336071 10.3067 0.384201 10.693C0.462959 11.3461 0.872502 11.7378 1.16653 11.9541C1.46406 12.173 1.74759 12.2752 1.74759 12.2752H1.75459L6.02767 13.7633C6.21931 14.3993 7.3298 18.1735 7.5967 19.0429C7.75422 19.5621 7.90736 19.8869 8.09901 20.1348C8.19177 20.2614 8.30028 20.3673 8.43067 20.4523C8.49845 20.4931 8.57073 20.5252 8.64594 20.5482L8.60219 20.5373C8.61531 20.5409 8.62581 20.5518 8.63544 20.5554C8.67044 20.5654 8.69407 20.569 8.7387 20.5762C9.41514 20.7879 9.95858 20.3537 9.95858 20.3537L9.98921 20.3284L12.5121 17.9537L16.7405 21.3072L16.8368 21.3497C17.718 21.7496 18.6106 21.527 19.0823 21.1344C19.5575 20.7391 19.7421 20.2334 19.7421 20.2334L19.7727 20.1519L23.0403 2.84699C23.1331 2.42 23.1567 2.02015 23.0543 1.63206C22.9487 1.23928 22.705 0.901472 22.3709 0.684893C22.0903 0.508592 21.765 0.423495 21.4372 0.440639ZM21.3488 2.29516C21.3453 2.35215 21.3558 2.34582 21.3313 2.45528V2.46523L18.0943 19.5902C18.0803 19.6146 18.0567 19.668 17.9919 19.7213C17.9237 19.7774 17.8694 19.8127 17.585 19.696L12.4132 15.5971L9.28913 18.5408L9.94545 14.2075L18.3953 6.06572C18.7436 5.731 18.6272 5.66044 18.6272 5.66044C18.6517 5.24973 18.1013 5.54012 18.1013 5.54012L7.44619 12.3639L7.44269 12.3458L2.33566 10.5681V10.5645L2.32253 10.5618C2.33148 10.5587 2.34025 10.5551 2.34878 10.551L2.37678 10.5365L2.40391 10.5265C2.40391 10.5265 6.96401 8.53993 11.5994 6.52257C13.9201 5.51208 16.2584 4.49435 18.0567 3.70912C19.855 2.92841 21.1843 2.35577 21.2595 2.32501C21.3313 2.29607 21.2971 2.29607 21.3488 2.29607V2.29516Z" fill="white"/>
</svg>
