<svg width="26" height="26" viewBox="0 0 26 26" fill="none" xmlns="http://www.w3.org/2000/svg">
<path d="M12.359 0.817023C10.2982 0.840637 5.86782 1.16208 3.3898 3.32003C1.54654 5.05369 0.902957 7.61687 0.827526 10.7864C0.764933 13.9445 0.689501 19.8752 6.71202 21.49V23.9496C6.71202 23.9496 6.6743 24.9338 7.35961 25.1356C8.2038 25.3893 8.68448 24.6321 9.48695 23.8186L10.9835 22.2121C15.1042 22.5374 18.2603 21.7879 18.6238 21.6766C19.46 21.423 24.1697 20.8517 24.9392 14.9202C25.7289 8.79449 24.5549 4.93487 22.4356 3.18901H22.4227C21.7831 2.62991 19.2128 0.852062 13.4704 0.832258C13.4704 0.832258 13.0443 0.804836 12.359 0.816262V0.817023ZM12.4296 2.53927C13.0146 2.53546 13.3701 2.55907 13.3701 2.55907C18.2306 2.57126 20.5506 3.95987 21.0978 4.42756C22.8825 5.8794 23.8022 9.35892 23.1289 14.4731C22.4893 19.4319 18.6696 19.7457 17.9626 19.9597C17.6617 20.0511 14.8819 20.7017 11.38 20.4876C11.38 20.4876 8.77195 23.4751 7.95664 24.2444C7.82744 24.3792 7.67658 24.4188 7.58029 24.399C7.44226 24.367 7.40053 24.2048 7.40856 23.9824L7.43343 19.9003C2.32573 18.5597 2.62666 13.5011 2.68122 10.8587C2.74382 8.21634 3.26622 6.05459 4.8214 4.59057C6.91504 2.79368 10.677 2.55145 12.428 2.53927H12.4296ZM12.8148 5.1809C12.7727 5.1805 12.731 5.188 12.6921 5.20297C12.6531 5.21794 12.6176 5.24008 12.5877 5.26812C12.5578 5.29616 12.534 5.32954 12.5178 5.36634C12.5015 5.40314 12.4931 5.44264 12.493 5.48254C12.493 5.65317 12.639 5.78799 12.8148 5.78799C13.6104 5.77363 14.4012 5.90893 15.1415 6.18608C15.8818 6.46324 16.5569 6.87677 17.128 7.40283C18.294 8.47761 18.8622 9.92183 18.8838 11.8101C18.8838 11.9769 19.0259 12.1156 19.2056 12.1156V12.1034C19.2903 12.1036 19.3717 12.072 19.432 12.0155C19.4923 11.959 19.5266 11.8822 19.5274 11.8017C19.5664 10.9129 19.4145 10.0259 19.0811 9.19452C18.7477 8.36314 18.2396 7.60481 17.5879 6.9656C16.3175 5.78723 14.7078 5.18014 12.8148 5.18014V5.1809ZM8.58497 5.8794C8.35783 5.84789 8.12618 5.89117 7.92856 6.00203H7.9117C7.4529 6.25731 7.03959 6.57996 6.68714 6.95799C6.39424 7.27943 6.23535 7.60469 6.19362 7.91775C6.16875 8.10437 6.1856 8.29099 6.24418 8.46923L6.26504 8.48142C6.59486 9.40158 7.02578 10.2867 7.5522 11.12C8.2303 12.2907 9.06481 13.3735 10.035 14.3413L10.0639 14.3809L10.1097 14.4129L10.1385 14.4449L10.1723 14.4723C11.1956 15.396 12.339 16.1918 13.5747 16.8405C14.9871 17.5702 15.8441 17.9153 16.3585 18.0585V18.0661C16.5093 18.1095 16.6466 18.1293 16.7846 18.1293C17.223 18.0988 17.638 17.9299 17.9634 17.6495C18.3598 17.3148 18.696 16.9209 18.9585 16.4833V16.4756C19.2048 16.0354 19.1214 15.6187 18.7659 15.3369C18.0539 14.7462 17.2841 14.2215 16.4668 13.77C15.9195 13.4882 15.3634 13.6588 15.1379 13.9445L14.6572 14.5196C14.4109 14.8052 13.9631 14.7656 13.9631 14.7656L13.9503 14.7732C10.6112 13.9635 9.72046 10.7544 9.72046 10.7544C9.72046 10.7544 9.67874 10.3179 9.98769 10.0955L10.5895 9.63542C10.8776 9.413 11.0782 8.88589 10.7693 8.36564C10.297 7.58881 9.74542 6.85786 9.12263 6.18332C8.98647 6.0243 8.79546 5.9161 8.58337 5.87787L8.58497 5.8794ZM13.3701 6.78432C12.944 6.78432 12.944 7.39521 13.3741 7.39521C13.9039 7.40337 14.4269 7.51056 14.9131 7.71067C15.3993 7.91077 15.8392 8.19985 16.2076 8.5614C16.5437 8.91332 16.802 9.32569 16.9671 9.77409C17.1322 10.2225 17.2009 10.6978 17.169 11.1718C17.1704 11.252 17.2049 11.3285 17.2651 11.3849C17.3252 11.4413 17.4062 11.4731 17.4908 11.4734L17.5036 11.4894C17.5887 11.4888 17.6702 11.4565 17.7304 11.3993C17.7906 11.3422 17.8247 11.2648 17.8254 11.184C17.8543 9.97363 17.4578 8.95826 16.6803 8.14474C15.8987 7.33123 14.8081 6.87496 13.4158 6.78432H13.3701ZM13.8973 8.42658C13.4584 8.41439 13.4415 9.03748 13.8764 9.04966C14.9341 9.10146 15.4477 9.60876 15.5151 10.6523C15.5165 10.7315 15.5506 10.8071 15.61 10.8627C15.6694 10.9184 15.7494 10.9498 15.8329 10.9501H15.8457C15.8886 10.9484 15.9307 10.9386 15.9696 10.9212C16.0084 10.9038 16.0433 10.8793 16.072 10.849C16.1008 10.8187 16.1229 10.7833 16.1371 10.7448C16.1513 10.7064 16.1572 10.6656 16.1546 10.6249C16.0792 9.26447 15.2976 8.49818 13.9101 8.42734H13.8973V8.42658Z" fill="white"/>
</svg>
