<svg width="50" height="50" viewBox="0 0 50 50" fill="none" xmlns="http://www.w3.org/2000/svg">
<path d="M25 0C11.25 0 0 11.25 0 25C0 38.75 11.25 50 25 50C38.75 50 50 38.75 50 25C50 11.25 38.75 0 25 0ZM25 47C13.125 47 3 36.875 3 25C3 13.125 13.125 3 25 3C36.875 3 47 13.125 47 25C47 36.875 36.875 47 25 47Z" fill="black"/>
<path d="M23.2551 41H25.8174L25.8295 38.227C31.0146 37.8516 33.9879 34.9937 34 30.9371C33.9879 26.6383 30.4466 24.6766 26.7239 23.7926L25.9262 23.5867L25.9746 16.6723C27.9084 17.0113 29.1533 18.1738 29.3467 19.9176H33.6616C33.5891 16.0668 30.5674 13.2574 25.9987 12.8215L26.0108 10H23.4485L23.4364 12.8215C18.9039 13.2816 15.6406 16.0668 15.6527 20.075C15.6527 23.6352 18.1788 25.6816 22.2519 26.7352L23.3397 27.0137L23.2913 34.3398C21.1279 34.0008 19.5687 32.7656 19.4116 30.5738H15C15.1692 35.1148 18.2875 37.8152 23.2672 38.227L23.2551 41ZM25.8537 34.3398L25.902 27.6918C28.1018 28.3336 29.5038 29.1812 29.5159 30.9008C29.5038 32.693 28.0655 33.9766 25.8537 34.3398ZM23.3639 22.9328C21.6959 22.4 20.173 21.516 20.1972 19.7965C20.2093 18.2344 21.3817 17.0234 23.4122 16.6723L23.3639 22.9328Z" fill="black"/>
</svg>
