<svg width="50" height="44" viewBox="0 0 50 44" fill="none" xmlns="http://www.w3.org/2000/svg">
<path d="M48.2143 4.9974L39 4.99943V1.5001C39 1.22473 38.7991 0.999431 38.5536 0.999431L36.4464 0.997314C36.2009 0.997314 36 1.22262 36 1.49798V4.99731L26.5179 5.00004V1.50067C26.5179 1.2253 26.317 1 26.0714 1L23.9464 1.00069C23.7009 1.00069 23.5 1.22599 23.5 1.50136V5.00074L14 5.00004V1.50071C14 1.22534 13.7991 1.00004 13.5536 1.00004H11.4464C11.2009 1.00004 11 1.22534 11 1.50071V5.00008H2C1.01228 5.00008 0 5.89235 0 7.00008V41.9974C0 43.1051 0.797991 44 1.78571 44H48.2143C49.202 44 50 43.1051 50 41.9974V7.00008C50 5.89235 49.202 4.9974 48.2143 4.9974ZM47 41H3V8.00008H11V11.5C11 11.7754 11.2009 12.0007 11.4464 12.0007H13.5536C13.7991 12.0007 14 11.7754 14 11.5V8.00008L23.5 8.00078V11.5C23.5 11.7754 23.7009 12.0007 23.9464 12.0007L26.0714 12C26.317 12 26.5179 11.7747 26.5179 11.4993V8.00013L36 7.9974V11.5C36 11.7754 36.2009 12.0007 36.4464 12.0007L38.5536 12.0028C38.7991 12.0028 39 11.7775 39 11.5021V7.99956L47 8.00016V41ZM19.6429 22.296H9.375C9.12946 22.296 8.92857 22.5213 8.92857 22.7967V24.7775C8.92857 25.0529 9.12946 25.2782 9.375 25.2782H19.6429C19.8884 25.2782 20.0893 25.0529 20.0893 24.7775V22.7967C20.0893 22.5213 19.8884 22.296 19.6429 22.296ZM19.6429 30.4411H9.375C9.12946 30.4411 8.92857 30.6664 8.92857 30.9418V32.9853C8.92857 33.2607 9.12946 33.486 9.375 33.486H19.6429C19.8884 33.486 20.0893 33.2607 20.0893 32.9853V30.9418C20.0893 30.6664 19.8884 30.4411 19.6429 30.4411ZM37.2857 18.4068L31 28.5L27.2199 22.7967C27.0525 22.5338 26.7846 22.3836 26.5 22.3836H24.3304C23.9676 22.3836 23.7556 22.8468 23.9676 23.1784L30.3348 33.0792C30.417 33.2071 30.5252 33.3113 30.6503 33.3832C30.7755 33.4551 30.9141 33.4926 31.0547 33.4926C31.1953 33.4926 31.3339 33.4551 31.4591 33.3832C31.5842 33.3113 31.6924 33.2071 31.7746 33.0792L40.9821 18.7663C41.1942 18.4346 40.9821 17.9715 40.6194 17.9715L38 18C37.721 17.9938 37.4531 18.1502 37.2857 18.4068Z" fill="black"/>
</svg>
