<svg width="49" height="40" viewBox="0 0 49 40" fill="none" xmlns="http://www.w3.org/2000/svg">
<path d="M43 0H0V34H43V0ZM40 31H3V3H40V31Z" fill="black"/>
<path d="M46 8V37L8 36.9077V40H49.0007V8H46Z" fill="black"/>
<path d="M21.5 25.9999C25.6354 25.9999 29 21.651 29 16.9999C29 12.3488 25.6354 8 21.5 8C17.3646 8 14 12.3487 14 16.9999C14 21.6511 17.3646 25.9999 21.5 25.9999ZM21.5 11C23.7975 11 26 14.249 26 16.9999C26 19.7508 23.7975 22.9999 21.5 22.9999C19.2025 22.9999 17 19.7508 17 16.9999C17 14.249 19.2025 11 21.5 11Z" fill="black"/>
<path d="M7 7H10V27.0001H7V7Z" fill="black"/>
<path d="M33 7H36V17V27H33V7Z" fill="black"/>
</svg>
