<svg width="50" height="50" viewBox="0 0 50 50" fill="none" xmlns="http://www.w3.org/2000/svg">
<path d="M49.6386 23.8913L26.1135 0.454353C25.8197 0.163343 25.4222 0 25.0078 0C24.5935 0 24.196 0.163343 23.9022 0.454353L0.377118 23.8913C0.120183 24.1902 -0.0140764 24.5747 0.00116964 24.9679C0.0164157 25.3612 0.180044 25.7342 0.459356 26.0125C0.738668 26.2907 1.11309 26.4537 1.5078 26.4689C1.90252 26.4841 2.28845 26.3504 2.58847 26.0944L25 3.76678L47.4115 26.11C47.7116 26.366 48.0975 26.4997 48.4922 26.4846C48.8869 26.4694 49.2613 26.3063 49.5406 26.0281C49.82 25.7498 49.9836 25.3768 49.9988 24.9836C50.0141 24.5903 49.8798 24.2058 49.6229 23.9069L49.6386 23.8913Z" fill="black"/>
<path d="M40.6831 46.8752H32.8414V31.2506H17.158V46.8752H9.31636V25.0007L6.17969 28.1257V46.8752C6.17969 47.704 6.51016 48.4988 7.0984 49.0849C7.68664 49.6709 8.48446 50.0001 9.31636 50.0001H20.2947V34.3755H29.7047V50.0001H40.6831C41.515 50.0001 42.3128 49.6709 42.9011 49.0849C43.4893 48.4988 43.8198 47.704 43.8198 46.8752V27.7507L40.6831 24.6257V46.8752Z" fill="black"/>
</svg>
