<svg width="42" height="47" viewBox="0 0 42 47" fill="none" xmlns="http://www.w3.org/2000/svg">
<path d="M40 20.9999H36C36 20.9999 36 11.4187 36 6.99992C36 2.58117 33.4188 0 29 0C24.5812 0 13 0 13 0C8.58125 0 6 2.58117 6 6.99992C6 11.4187 6 20.9999 6 20.9999H2C0.89375 20.9999 0 21.8937 0 22.9999V44.9999C0 46.1062 0.89375 46.9999 2 46.9999H40C41.1063 46.9999 42 46.1062 42 44.9999V22.9999C42 21.8937 41.1063 20.9999 40 20.9999ZM9 6.5C9 4.56875 10.5688 3 12.5 3H29.5C31.4312 3 33 4.56875 33 6.5C33 8.43125 33 20.9999 33 20.9999H9C9 20.9999 9 8.43125 9 6.5ZM39 43.9999H3V23.9999H39V43.9999ZM19.25 34.8124V38.1249C19.25 38.3999 19.475 38.6249 19.75 38.6249H22.25C22.525 38.6249 22.75 38.3999 22.75 38.1249V34.8124C23.2659 34.442 23.651 33.9175 23.8498 33.3143C24.0486 32.7111 24.0509 32.0603 23.8564 31.4558C23.6618 30.8512 23.2804 30.3239 22.7671 29.9499C22.2539 29.5758 21.6351 29.3743 21 29.3743C20.3649 29.3743 19.7461 29.5758 19.2329 29.9499C18.7196 30.3239 18.3382 30.8512 18.1436 31.4558C17.9491 32.0603 17.9514 32.7111 18.1502 33.3143C18.349 33.9175 18.7341 34.442 19.25 34.8124Z" fill="black"/>
</svg>
