<svg width="45" height="51" viewBox="0 0 45 51" fill="none" xmlns="http://www.w3.org/2000/svg">
<path d="M20.7327 27.7679L16.1077 23.1429L13.875 25.2141L20.7327 32.0553L34.375 18.2141L32.5006 16L20.7327 27.7679Z" fill="black"/>
<path d="M22.4295 51L11.4009 45.1196C8.25688 43.447 5.62765 40.9497 3.79543 37.8959C1.9632 34.8421 0.997142 31.347 1.00093 27.7857V3.99998C1.00187 3.05307 0.832284 2.16949 1.50185 1.49993C2.17142 0.830358 3.054 1.00093 4.00092 0.999982H41.0009C42 1.00001 42.8304 0.830432 43.5 1.5C44.1696 2.16957 44 3.05307 44.0009 3.99998V27.7857C44.0047 31.347 42.8958 34.8421 41.0636 37.8959C39.2313 40.9497 36.6021 43.447 33.4581 45.1196L22.4295 51ZM4.00092 3.99998V27.7857C3.99795 30.6996 5.36004 34.1076 6.85943 36.6062C8.35883 39.1047 10.5103 41.1478 13.0831 42.5161L22.4295 47.5L31.7759 42.5179C34.3489 41.1494 36.5006 39.1061 38 36.6072C39.4994 34.1083 41.0042 30.6999 41.0009 27.7857V3.99998H4.00092Z" fill="black"/>
</svg>
